<svg width="239" height="100" viewBox="0 0 239 100" fill="none" xmlns="http://www.w3.org/2000/svg">
<path d="M38.8631 97.7196V81.615H0V64.0091L42.8038 1.50128H62.9148V62.6443H75.4162V81.615H62.9148V97.7196H38.8631ZM38.8631 62.6443V36.8496L21.6057 62.6443H38.8631Z" fill="#9161DF"/>
<path d="M118.031 99.2209C106.164 99.2209 97.1047 94.899 90.854 86.2553C84.6033 77.5206 81.4779 65.1919 81.4779 49.2692C81.4779 33.2556 84.6033 21.0634 90.854 12.6926C97.1047 4.23088 106.164 0 118.031 0C129.898 0 138.957 4.23088 145.208 12.6926C151.459 21.0634 154.584 33.2101 154.584 49.1328C154.584 65.1464 151.459 77.5206 145.208 86.2553C138.957 94.899 129.898 99.2209 118.031 99.2209ZM118.031 79.2948C122.379 79.2948 125.595 76.9291 127.679 72.1978C129.853 67.3756 130.94 59.6872 130.94 49.1328C130.94 38.6693 129.853 31.2084 127.679 26.75C125.595 22.2007 122.379 19.9261 118.031 19.9261C113.683 19.9261 110.421 22.2007 108.247 26.75C106.164 31.2084 105.122 38.6693 105.122 49.1328C105.122 59.6872 106.164 67.3756 108.247 72.1978C110.421 76.9291 113.683 79.2948 118.031 79.2948Z" fill="#9161DF"/>
<path d="M201.819 97.7196V81.615H162.956V64.0091L205.76 1.50128H225.871V62.6443H238.372V81.615H225.871V97.7196H201.819ZM201.819 62.6443V36.8496L184.562 62.6443H201.819Z" fill="#9161DF"/>
</svg>
