<svg id="svg-message-2" viewBox="0 0 64 64" fill="none" xmlns="http://www.w3.org/2000/svg">
<path d="M56 30.6666C56.0092 34.1863 55.1869 37.6583 53.6 40.8C51.7185 44.5646 48.826 47.7311 45.2465 49.9447C41.6671 52.1583 37.542 53.3317 33.3333 53.3333C29.8137 53.3425 26.3416 52.5201 23.2 50.9333L8 56L13.0667 40.8C11.4798 37.6583 10.6575 34.1863 10.6667 30.6666C10.6683 26.458 11.8416 22.3329 14.0553 18.7534C16.2689 15.174 19.4353 12.2815 23.2 10.4C26.3416 8.8131 29.8137 7.99078 33.3333 7.99995H34.6667C40.2249 8.3066 45.4748 10.6527 49.411 14.5889C53.3473 18.5252 55.6934 23.775 56 29.3333V30.6666Z" stroke="currentColor" stroke-width="2" stroke-linecap="round" stroke-linejoin="round"/>
</svg>
