<svg id="svg-eye-close-line" viewBox="0 0 24 25" fill="none" xmlns="http://www.w3.org/2000/svg">
<g clip-path="url(#clip0_2026_266)">
<path d="M9.34178 19.282L7.41078 18.764L8.19778 15.825C7.01975 15.3905 5.9249 14.7573 4.96078 13.953L2.80778 16.107L1.39278 14.692L3.54678 12.539C2.33086 11.0827 1.51387 9.33575 1.17578 7.46899L3.14378 7.10999C3.90278 11.312 7.57878 14.5 11.9998 14.5C16.4198 14.5 20.0968 11.312 20.8558 7.10999L22.8238 7.46799C22.4861 9.335 21.6695 11.0824 20.4538 12.539L22.6068 14.692L21.1918 16.107L19.0388 13.953C18.0747 14.7573 16.9798 15.3905 15.8018 15.825L16.5888 18.765L14.6578 19.282L13.8698 16.342C12.6321 16.5541 11.3674 16.5541 10.1298 16.342L9.34178 19.282Z" fill="currentColor"/>
</g>
<defs>
<clipPath id="clip0_2026_266">
<rect width="24" height="24" fill="white" transform="translate(0 0.5)"/>
</clipPath>
</defs>
</svg>
