<svg width="42" height="42" viewBox="0 0 42 42" fill="none" xmlns="http://www.w3.org/2000/svg">
<ellipse cx="20.6549" cy="20.6549" rx="20.6549" ry="20.6549" fill="#9161DF"/>
<g filter="url(#filter0_d_2001_2513)">
<path d="M24.7032 21.9698C24.6825 21.9912 24.6681 22.018 24.6617 22.0472C24.6553 22.0764 24.6571 22.1068 24.6669 22.135C24.6768 22.1632 24.6942 22.1881 24.7173 22.2069C24.7404 22.2256 24.7683 22.2375 24.7978 22.2412C25.5358 22.3316 27.4455 22.4537 29.0121 21.5815C30.5924 20.7018 32.0166 18.4264 32.2013 17.0929C32.6066 14.1662 29.9094 11.7928 27.3087 11.9635C27.2397 11.9679 27.1702 11.9595 27.1004 11.9595L18.4937 12.0105C18.4164 12.0109 18.3403 12.0302 18.272 12.0667C18.2037 12.1032 18.1452 12.1559 18.1016 12.2201L11.4636 21.9706C11.4472 21.9947 11.4376 22.0229 11.436 22.0521C11.4343 22.0813 11.4406 22.1104 11.4541 22.1363C11.4677 22.1621 11.488 22.1838 11.5128 22.1989C11.5377 22.214 11.5662 22.222 11.5953 22.222L16.1958 22.216C16.2235 22.216 16.2508 22.2233 16.2749 22.2371C16.2989 22.251 16.319 22.2709 16.3331 22.2949C16.3472 22.319 16.3548 22.3463 16.3552 22.3742C16.3556 22.4021 16.3488 22.4296 16.3354 22.4541L10.8899 32.3636C10.8713 32.3977 10.8656 32.4374 10.8738 32.4753C10.882 32.5133 10.9037 32.547 10.9347 32.5702C10.9657 32.5933 11.004 32.6043 11.0425 32.6012C11.081 32.5981 11.1171 32.581 11.1441 32.5531L21.0749 22.2208L24.1335 19.0146C24.1552 18.9919 24.1698 18.9633 24.1754 18.9323C24.181 18.9013 24.1774 18.8693 24.1652 18.8403C24.1529 18.8114 24.1324 18.7867 24.1063 18.7693C24.0801 18.752 24.0495 18.7428 24.0182 18.7428L20.9464 18.752L17.6168 18.7922C17.5875 18.7925 17.5586 18.7847 17.5333 18.7696C17.5081 18.7545 17.4875 18.7326 17.4738 18.7065C17.4601 18.6803 17.4538 18.6508 17.4557 18.6213C17.4576 18.5918 17.4675 18.5634 17.4844 18.5392L19.4348 15.7482C19.4791 15.685 19.5378 15.6334 19.6061 15.5978C19.6743 15.5622 19.7501 15.5437 19.827 15.5439L27.2409 15.5559C27.2608 15.5559 27.2808 15.5559 27.3003 15.5559C28.0802 15.59 28.9044 16.1052 28.782 17.2086C28.7357 17.6213 28.4405 17.9498 27.8397 18.7151C27.8364 18.7195 27.8328 18.7237 27.8289 18.7275L24.7032 21.9698Z" fill="white"/>
</g>
<defs>
<filter id="filter0_d_2001_2513" x="10.8701" y="11.9548" width="23.3721" height="22.6469" filterUnits="userSpaceOnUse" color-interpolation-filters="sRGB">
<feFlood flood-opacity="0" result="BackgroundImageFix"/>
<feColorMatrix in="SourceAlpha" type="matrix" values="0 0 0 0 0 0 0 0 0 0 0 0 0 0 0 0 0 0 127 0" result="hardAlpha"/>
<feOffset dx="1" dy="1"/>
<feGaussianBlur stdDeviation="0.5"/>
<feComposite in2="hardAlpha" operator="out"/>
<feColorMatrix type="matrix" values="0 0 0 0 0.129412 0 0 0 0 0.129412 0 0 0 0 0.129412 0 0 0 1 0"/>
<feBlend mode="normal" in2="BackgroundImageFix" result="effect1_dropShadow_2001_2513"/>
<feBlend mode="normal" in="SourceGraphic" in2="effect1_dropShadow_2001_2513" result="shape"/>
</filter>
</defs>
</svg>
